<svg xmlns="http://www.w3.org/2000/svg" width="341.333" height="341.333" version="1.0" viewBox="0 0 256 256"><path d="M107.5 1.5C81.2 5.4 54.6 18.6 36.6 36.6 12.8 60.3-1.4 97.3.3 131.1c1.7 33.7 13.9 62.2 36.8 85.6 39.3 40.3 98.9 50.6 149.4 25.8 25.5-12.5 43.5-30.5 56-56 12.8-26.1 16.4-54.5 10.5-83.3C239.4 36.5 175.1-8.5 107.5 1.5M148.2 9c12.9 2.2 22 5.1 32.8 10.4 34 16.9 57.7 47.7 65.6 85.6 1.3 5.9 1.8 12.9 1.8 23 0 21.2-3.7 36.8-13.1 55.3-22.4 43.6-70.6 70-118.6 64.8-30.8-3.3-55.3-15.3-76.2-37.2-56.3-59-38.7-155.5 35-191.7 11.8-5.8 22.1-8.8 39.5-11.5 7-1.1 22.9-.5 33.2 1.3z"/><path d="M75.5 53.2C71.6 55.3 59.8 67.6 57 72.6c-6.5 11.2-7.5 24.1-3 37.4 12.9 37.8 52.3 77.1 90.3 90.1 16.4 5.7 27.5 5.2 40.6-1.5 5.8-3.1 18-15.5 19.3-19.7 2.1-7.2.5-9.8-16.6-26.8l-15.5-15.3-6.1.4-6.1.4-8.7 8.7c-5.1 5.1-9.6 8.7-10.7 8.7-5.9 0-39.5-33-39.5-38.7 0-1 3.8-5.6 8.5-10.3 14.9-14.8 14.6-17.2-4.8-36.8-7.8-7.9-15.4-15-16.9-15.8-3.2-1.7-9.5-1.8-12.3-.2zm21.7 20.5C107.4 83.9 111 88 111 89.9c0 1.7-2.6 5.1-8.9 11.6-14.3 14.8-13.8 17.5 7.8 39.8 13 13.5 25.4 22.7 30.4 22.7 4.2 0 6.4-1.4 15.8-10.6 4.8-4.6 9.5-8.4 10.4-8.4 1 0 8.1 6.2 15.7 13.7C193 169.4 196 173 196 175s-1.7 4.3-6.4 8.9c-15.1 14.4-29.3 15.3-54.1 3.2-14.2-6.9-26.2-15.8-39.5-29.1-12.9-12.9-20.8-23.4-27.5-36.6-9.7-18.8-11-31.1-4.6-43.2C67.5 71.6 78.7 60 81.6 60c.9 0 8 6.2 15.6 13.7z"/></svg>